<svg xmlns="http://www.w3.org/2000/svg" viewBox="0 0 256 262">
  <path
    fill="#4285F4"
    d="M255.878 133.451c0-10.427-.866-17.924-2.881-25.713H130.55v48.448h71.867c-1.449 12.04-9.283 30.172-26.686 42.355l-.244 1.622 38.755 29.94 2.684.267c24.657-22.814 38.952-56.426 38.952-96.92"
  />
  <path
    fill="#34A853"
    d="M130.55 261.1c35.226 0 64.786-11.597 86.381-31.725l-41.195-31.83c-11.01 7.707-25.798 13.123-45.186 13.123-34.497 0-63.78-22.815-74.201-54.405l-1.532.13-40.298 31.101-.527 1.47C35.466 231.858 79.49 261.1 130.55 261.1"
  />
  <path
    fill="#FBBC05"
    d="M56.349 156.262c-2.747-8.088-4.33-16.723-4.33-25.537 0-8.814 1.583-17.448 4.186-25.536l-.073-1.73-40.803-31.6-1.335.635C5.08 90.43 0 110.84 0 130.725c0 19.885 5.08 40.295 13.995 58.232z"
  />
  <path
    fill="#EB4335"
    d="M130.55 50.781c24.46 0 40.912 10.565 50.299 19.408l36.709-35.85C195.279 13.8 165.776.35 130.55.35 79.49.35 35.466 29.592 13.995 72.493l42.211 32.696c10.565-31.59 39.848-54.408 74.344-54.408"
  />
</svg>
